<?xml version="1.0" standalone="no"?>
<!DOCTYPE svg PUBLIC "-//W3C//DTD SVG 20010904//EN"
 "http://www.w3.org/TR/2001/REC-SVG-20010904/DTD/svg10.dtd">
<svg version="1.0" xmlns="http://www.w3.org/2000/svg"
 width="200.000000pt" height="200.000000pt" viewBox="0 0 200.000000 200.000000"
 preserveAspectRatio="xMidYMid meet">

<g transform="translate(0.000000,200.000000) scale(0.100000,-0.100000)"
fill="#000000" stroke="none">
<path d="M0 1476 c0 -410 3 -526 13 -530 10 -5 10 -7 0 -12 -18 -8 -16 -42 2
-60 19 -20 19 -58 0 -74 -13 -11 -15 -68 -15 -406 l0 -394 1000 0 999 0 1
1000 0 1000 -1000 0 -1000 0 0 -524z m1154 -135 c37 -16 46 -25 46 -45 0 -14
-8 -33 -18 -43 -11 -10 -49 -75 -86 -145 -37 -70 -71 -130 -76 -133 -5 -3 -17
9 -26 27 -27 53 -33 59 -54 46 -33 -21 -50 6 -50 79 0 64 -15 108 -44 132 -9
8 -16 21 -16 31 0 69 209 102 324 51z m106 -465 l0 -84 -42 2 c-35 1 -45 6
-58 29 -13 24 -13 30 1 55 11 21 23 27 47 27 28 0 32 3 32 27 0 16 5 28 10 28
6 0 10 -35 10 -84z m-1116 52 c18 -25 21 -74 6 -112 -7 -20 -17 -26 -39 -26
-15 0 -35 7 -42 17 -18 20 -17 106 0 127 19 23 57 20 75 -6z m1486 12 c0 -5
-4 -10 -10 -10 -5 0 -10 5 -10 10 0 6 5 10 10 10 6 0 10 -4 10 -10z m-1312
-36 c20 -4 22 -10 22 -59 0 -30 -4 -55 -10 -55 -5 0 -10 23 -10 50 0 43 -3 50
-20 50 -24 0 -40 -28 -40 -69 0 -17 -4 -31 -10 -31 -6 0 -10 26 -10 59 0 58 1
59 28 59 15 0 37 -2 50 -4z m82 -43 c0 -55 10 -67 40 -51 15 8 20 21 20 55 0
25 5 45 10 45 6 0 10 -26 10 -59 l0 -59 -47 2 -48 1 -3 58 c-2 35 1 57 8 57 5
0 10 -22 10 -49z m188 37 c7 -7 12 -33 12 -59 l0 -47 -42 2 c-37 1 -43 4 -46
25 -4 26 12 41 46 41 13 0 22 6 22 15 0 10 -10 15 -31 15 -17 0 -28 4 -24 10
9 14 48 13 63 -2z m142 -7 c13 -25 13 -101 0 -101 -5 0 -10 17 -10 38 0 46
-12 65 -36 60 -15 -2 -20 -14 -22 -51 -4 -67 -22 -59 -22 11 l0 57 40 3 c30 2
41 -2 50 -17z m120 10 c0 -5 -12 -11 -27 -13 -24 -3 -29 -8 -31 -37 -4 -37 12
-54 41 -45 9 3 17 1 17 -5 0 -6 -13 -11 -30 -11 -55 0 -78 82 -31 110 21 12
61 13 61 1z m104 -7 c9 -8 16 -24 16 -35 0 -16 -7 -19 -40 -19 -22 0 -40 -4
-40 -10 0 -16 35 -29 60 -23 16 4 21 3 16 -5 -12 -20 -74 -14 -86 7 -24 45 -2
101 40 101 10 0 26 -7 34 -16z m111 6 c4 -6 -7 -10 -24 -10 -39 0 -40 -15 -2
-35 38 -19 46 -32 31 -50 -14 -17 -80 -20 -80 -4 0 6 8 8 19 4 20 -6 51 3 51
14 0 4 -16 15 -35 24 -36 17 -44 34 -23 55 15 15 54 16 63 2z m309 -6 c9 -8
16 -24 16 -35 0 -16 -7 -19 -40 -19 -22 0 -40 -4 -40 -10 0 -16 35 -29 60 -23
16 4 21 3 16 -5 -9 -16 -69 -15 -84 0 -17 17 -15 74 4 92 8 9 24 16 34 16 10
0 26 -7 34 -16z m196 -4 c15 -23 12 -76 -5 -90 -8 -7 -27 -10 -43 -8 -26 4
-28 2 -24 -24 3 -21 0 -28 -12 -28 -13 0 -16 13 -16 84 l0 84 45 -2 c28 -1 50
-7 55 -16z m60 -40 c0 -33 -4 -60 -10 -60 -6 0 -10 27 -10 60 0 33 4 60 10 60
6 0 10 -27 10 -60z m110 50 c0 -6 -14 -29 -31 -53 l-31 -42 34 -6 c32 -6 32
-6 -9 -8 -50 -1 -53 8 -18 53 14 18 25 36 25 39 0 4 -11 7 -25 7 -14 0 -25 5
-25 10 0 6 18 10 40 10 22 0 40 -5 40 -10z m100 -1 c0 -6 -14 -30 -30 -54
l-30 -44 37 -4 c35 -3 34 -4 -9 -5 -27 -1 -48 2 -48 6 0 5 14 28 30 50 l30 42
-30 0 c-16 0 -30 5 -30 10 0 6 18 10 40 10 22 0 40 -5 40 -11z m108 -1 c7 -7
12 -33 12 -58 l0 -47 -44 -1 c-38 -2 -46 1 -52 20 -8 26 17 48 54 48 15 0 22
5 19 13 -2 6 -16 12 -30 12 -27 -1 -33 5 -20 18 11 11 48 8 61 -5z m-1093
-228 c3 -6 -1 -7 -9 -4 -18 7 -21 14 -7 14 6 0 13 -4 16 -10z m32 -27 c-3 -10
-5 -4 -5 12 0 17 2 24 5 18 2 -7 2 -21 0 -30z m53 18 c-7 -14 -6 -21 3 -24 6
-3 1 -6 -12 -6 -19 -1 -21 1 -11 14 6 8 9 19 5 25 -3 5 1 10 10 10 12 0 14 -4
5 -19z m60 10 c0 -6 -5 -13 -11 -17 -8 -4 -7 -9 2 -15 11 -7 10 -9 -3 -9 -20
0 -24 15 -7 26 8 4 7 9 -2 15 -11 7 -10 9 4 9 9 0 17 -4 17 -9z m41 2 c-11 -5
-11 -7 0 -14 12 -7 11 -9 -1 -9 -13 0 -13 -1 0 -10 13 -8 12 -10 -2 -10 -13 0
-18 8 -18 25 0 17 5 25 18 24 12 0 13 -2 3 -6z m65 -20 c1 -11 -5 -20 -12 -20
-8 0 -14 11 -14 25 0 29 24 25 26 -5z m31 -10 c-3 -10 -5 -4 -5 12 0 17 2 24
5 18 2 -7 2 -21 0 -30z m63 6 c0 -4 -9 -9 -19 -12 -17 -4 -18 -2 -9 19 8 18
14 21 20 12 4 -7 8 -16 8 -19z m-457 4 c-23 -2 -64 -2 -90 0 -26 2 -7 3 42 3
50 0 71 -1 48 -3z m640 0 c-23 -2 -64 -2 -90 0 -26 2 -7 3 42 3 50 0 71 -1 48
-3z"/>
<path d="M905 1325 c-22 -8 -41 -15 -42 -15 -2 0 -3 -9 -3 -20 0 -24 11 -25
65 -5 22 8 59 14 83 15 23 0 42 5 42 10 0 6 7 10 15 10 10 0 15 -10 15 -30 0
-16 5 -30 10 -30 6 0 10 9 10 20 0 24 6 25 27 5 17 -18 44 -16 51 3 2 7 -15
21 -40 32 -52 24 -173 26 -233 5z"/>
<path d="M1010 1266 c0 -40 -70 -62 -89 -29 -15 28 -17 14 -13 -79 4 -84 17
-118 24 -60 4 40 19 32 52 -27 18 -35 32 -49 38 -43 6 6 4 19 -7 35 -13 20
-14 30 -6 46 12 21 45 36 61 26 5 -3 23 21 40 55 30 60 28 71 -10 48 -17 -11
-23 -9 -45 15 -28 30 -45 35 -45 13z m64 -77 c-3 -5 -10 -7 -15 -3 -5 3 -7 10
-3 15 3 5 10 7 15 3 5 -3 7 -10 3 -15z m-54 -24 c-16 -19 -49 -19 -57 0 -8 22
4 30 21 16 11 -9 15 -8 20 5 5 13 10 14 18 6 8 -8 8 -15 -2 -27z"/>
<path d="M943 1258 c2 -7 10 -13 17 -13 7 0 15 6 18 13 2 7 -5 12 -18 12 -13
0 -20 -5 -17 -12z"/>
<path d="M1035 1100 c-3 -5 -3 -15 1 -21 6 -11 23 6 24 24 0 10 -18 9 -25 -3z"/>
<path d="M1181 868 c-10 -28 -3 -55 16 -62 32 -12 53 27 37 68 -9 24 -43 19
-53 -6z"/>
<path d="M80 904 c-13 -34 -3 -91 18 -99 34 -13 56 60 32 106 -15 27 -39 24
-50 -7z"/>
<path d="M548 843 c-20 -5 -24 -28 -8 -38 13 -8 40 13 40 31 0 14 -3 15 -32 7z"/>
<path d="M897 884 c-15 -15 -6 -24 24 -24 20 0 29 4 27 13 -5 14 -40 21 -51
11z"/>
<path d="M1317 884 c-15 -15 -6 -24 24 -24 20 0 29 4 27 13 -5 14 -40 21 -51
11z"/>
<path d="M1507 883 c-14 -13 -7 -71 9 -77 32 -12 54 26 38 68 -6 16 -35 22
-47 9z"/>
<path d="M1903 840 c-26 -11 -30 -28 -8 -36 18 -7 45 12 45 32 0 16 -6 16 -37
4z"/>
<path d="M2 840 c0 -14 2 -19 5 -12 2 6 2 18 0 25 -3 6 -5 1 -5 -13z"/>
</g>
</svg>
